<svg width="137" height="41" fill="none" xmlns="http://www.w3.org/2000/svg"><path fill-rule="evenodd" clip-rule="evenodd" d="M131.202 40.885H4.765C2.138 40.885 0 38.71 0 36.048V4.83C0 2.167 2.138 0 4.765 0h126.437c2.626 0 4.84 2.167 4.84 4.83v31.217c0 2.663-2.214 4.838-4.84 4.838z" fill="#A6A6A6"/><path fill-rule="evenodd" clip-rule="evenodd" d="M134.169 35.139c0 2.163-1.727 3.915-3.863 3.915H3.869C1.733 39.054 0 37.302 0 35.139V3.919C0 1.76 1.733 0 3.869 0h126.436c2.137 0 3.863 1.758 3.863 3.92l.001 31.219z" fill="#000"/><path fill-rule="evenodd" clip-rule="evenodd" d="M30.36 20.222c-.029-3.295 2.66-4.897 2.783-4.972-1.523-2.252-3.883-2.56-4.712-2.584-1.983-.212-3.905 1.203-4.915 1.203-1.03 0-2.585-1.182-4.26-1.148-2.157.034-4.175 1.3-5.281 3.267-2.284 4.01-.58 9.902 1.607 13.144 1.095 1.587 2.373 3.36 4.047 3.297 1.638-.069 2.25-1.059 4.226-1.059 1.958 0 2.532 1.059 4.24 1.02 1.757-.03 2.863-1.595 3.92-3.197 1.264-1.82 1.772-3.611 1.792-3.703-.041-.014-3.413-1.32-3.447-5.268zm-3.224-9.688c.88-1.117 1.483-2.637 1.316-4.18-1.275.058-2.87.895-3.787 1.988-.812.962-1.538 2.54-1.35 4.025 1.431.108 2.902-.733 3.82-1.833zm26.923 21.667H51.77l-1.253-3.995h-4.358L44.965 32.2h-2.228l4.317-13.6h2.667l4.338 13.6zm-3.92-5.672l-1.134-3.552c-.12-.362-.345-1.217-.676-2.562h-.04a99.748 99.748 0 01-.637 2.562l-1.114 3.552h3.6zm15.021.647c0 1.669-.444 2.987-1.332 3.955-.796.862-1.785 1.292-2.965 1.292-1.274 0-2.189-.464-2.746-1.392h-.04v5.167h-2.149V25.622a68.15 68.15 0 00-.08-3.23h1.89l.12 1.555h.04c.717-1.17 1.804-1.756 3.263-1.756 1.141 0 2.093.457 2.855 1.372.764.916 1.145 2.12 1.145 3.613zm-2.188.08c0-.955-.211-1.742-.637-2.361-.464-.646-1.088-.969-1.87-.969-.53 0-1.012.18-1.442.535a2.485 2.485 0 00-.846 1.403c-.066.27-.1.49-.1.664v1.636c0 .713.216 1.315.648 1.807.431.491.991.737 1.68.737.81 0 1.44-.317 1.89-.949.451-.632.677-1.466.677-2.503zm13.311-.08c0 1.669-.444 2.987-1.334 3.955-.795.862-1.784 1.292-2.964 1.292-1.274 0-2.189-.464-2.745-1.392h-.04v5.167h-2.15V25.622a68.15 68.15 0 00-.08-3.23h1.89l.12 1.555h.04c.716-1.17 1.803-1.756 3.263-1.756 1.14 0 2.092.457 2.856 1.372.761.916 1.143 2.12 1.143 3.613zm-2.189.08c0-.955-.212-1.742-.637-2.361-.465-.646-1.087-.969-1.87-.969-.53 0-1.012.18-1.443.535a2.484 2.484 0 00-.844 1.403c-.066.27-.1.49-.1.664v1.636c0 .713.215 1.315.645 1.807.431.49.991.737 1.683.737.809 0 1.439-.317 1.89-.949.45-.632.676-1.466.676-2.503zm14.624 1.131c0 1.157-.396 2.098-1.19 2.825-.875.794-2.09 1.19-3.654 1.19-1.443 0-2.6-.282-3.475-.847l.497-1.816a5.826 5.826 0 003.106.869c.81 0 1.44-.186 1.892-.556.45-.37.675-.867.675-1.486 0-.552-.186-1.017-.558-1.395-.37-.377-.987-.727-1.85-1.051-2.348-.889-3.52-2.19-3.52-3.9 0-1.12.41-2.036 1.234-2.75.82-.714 1.915-1.07 3.283-1.07 1.22 0 2.234.215 3.043.645l-.537 1.777c-.756-.417-1.61-.626-2.567-.626-.755 0-1.346.19-1.769.566a1.625 1.625 0 00-.537 1.231c0 .538.204.983.616 1.332.357.323 1.007.673 1.95 1.05 1.154.471 2.002 1.022 2.547 1.654.543.63.814 1.417.814 2.358zm7.104-4.358h-2.368v4.762c0 1.21.417 1.816 1.253 1.816.384 0 .703-.034.955-.101l.059 1.655c-.423.16-.98.24-1.67.24-.85 0-1.512-.262-1.991-.786-.477-.526-.717-1.407-.717-2.644v-4.945h-1.41v-1.635h1.41v-1.796l2.11-.646v2.442h2.369v1.638zm10.685 3.187c0 1.508-.426 2.746-1.274 3.714-.89.996-2.071 1.493-3.543 1.493-1.419 0-2.549-.477-3.391-1.432-.843-.955-1.264-2.16-1.264-3.612 0-1.52.433-2.765 1.303-3.733.868-.97 2.039-1.454 3.511-1.454 1.419 0 2.561.478 3.422 1.433.824.927 1.236 2.124 1.236 3.591zm-2.23.07c0-.904-.19-1.68-.576-2.327-.45-.783-1.094-1.173-1.929-1.173-.863 0-1.519.391-1.97 1.173-.386.648-.576 1.436-.576 2.369 0 .904.19 1.68.576 2.326.465.783 1.114 1.173 1.951 1.173.82 0 1.464-.398 1.929-1.194.396-.659.595-1.443.595-2.346zm9.213-2.976a3.676 3.676 0 00-.677-.061c-.756 0-1.34.29-1.752.869-.357.51-.537 1.157-.537 1.937V32.2h-2.147l.02-6.72c0-1.13-.027-2.16-.081-3.087h1.872l.078 1.876h.06c.227-.645.584-1.164 1.074-1.553.479-.35.996-.526 1.553-.526.198 0 .378.015.537.04v2.078zm9.609 2.523c0 .39-.026.72-.079.989h-6.445c.025.969.336 1.71.935 2.22.543.458 1.245.687 2.108.687.954 0 1.825-.155 2.608-.464l.336 1.512c-.915.405-1.995.606-3.241.606-1.5 0-2.677-.447-3.533-1.342-.855-.894-1.283-2.095-1.283-3.602 0-1.479.398-2.71 1.195-3.693.834-1.048 1.962-1.573 3.381-1.573 1.393 0 2.449.525 3.165 1.573.567.833.853 1.864.853 3.087zm-2.049-.565c.014-.646-.126-1.204-.417-1.675-.372-.606-.944-.909-1.712-.909-.703 0-1.274.295-1.711.888-.357.472-.57 1.037-.635 1.695h4.475v.001zM49.428 10.23c0 1.204-.355 2.11-1.066 2.717-.658.562-1.593.843-2.804.843-.6 0-1.115-.027-1.545-.08V7.137a11.244 11.244 0 011.819-.14c1.154 0 2.023.255 2.61.764.657.576.986 1.398.986 2.47zm-1.113.03c0-.78-.204-1.378-.61-1.795-.408-.416-1.002-.624-1.785-.624a4.33 4.33 0 00-.851.07v4.997c.13.02.368.03.713.03.809 0 1.433-.229 1.872-.685.44-.456.66-1.12.66-1.993zm7.018 1.021c0 .741-.209 1.349-.626 1.825-.438.49-1.017.734-1.74.734-.698 0-1.253-.234-1.667-.704-.413-.47-.62-1.061-.62-1.775 0-.746.213-1.358.64-1.834.427-.475 1.002-.713 1.725-.713.697 0 1.258.234 1.682.703.403.456.606 1.045.606 1.764zm-1.096.035c0-.445-.094-.826-.283-1.144-.222-.384-.537-.576-.947-.576-.424 0-.747.192-.968.576-.19.318-.284.706-.284 1.164 0 .444.095.825.283 1.143.23.385.548.577.959.577.403 0 .72-.195.947-.587.195-.324.293-.708.293-1.153zm9.013-2.404l-1.487 4.818h-.968l-.615-2.092a15.823 15.823 0 01-.382-1.557h-.02c-.091.53-.218 1.048-.381 1.557l-.654 2.092h-.979l-1.397-4.818h1.085l.537 2.29c.13.542.237 1.059.323 1.547h.019c.078-.402.208-.916.392-1.536l.674-2.3h.86l.646 2.25c.157.55.284 1.078.381 1.587h.03c.071-.495.179-1.024.322-1.586l.576-2.25h1.037v-.002zm5.474 4.818h-1.056v-2.76c0-.85-.318-1.275-.957-1.275a.948.948 0 00-.763.35c-.195.234-.293.51-.293.826v2.858h-1.056v-3.44c0-.424-.014-.883-.039-1.38h.928l.05.754h.029a1.54 1.54 0 01.547-.582c.286-.18.607-.27.957-.27.444 0 .813.145 1.106.436.365.357.547.89.547 1.597v2.886zm2.912 0h-1.055V6.701h1.055v7.03zm6.218-2.449c0 .741-.209 1.349-.626 1.825-.437.49-1.017.734-1.74.734-.698 0-1.254-.234-1.667-.704-.413-.47-.62-1.061-.62-1.775 0-.746.213-1.358.64-1.834.428-.475 1.002-.713 1.725-.713.698 0 1.257.234 1.682.703.403.456.606 1.045.606 1.764zm-1.096.035c0-.445-.095-.826-.283-1.144-.221-.384-.538-.576-.947-.576-.425 0-.748.192-.968.576-.19.318-.283.706-.283 1.164 0 .444.094.825.283 1.143.229.385.547.577.958.577.403 0 .719-.195.946-.587.197-.324.294-.708.294-1.153zm6.207 2.414h-.948l-.079-.555h-.029c-.324.443-.787.665-1.388.665-.448 0-.81-.146-1.084-.437a1.38 1.38 0 01-.372-.98c0-.59.242-1.038.729-1.35.486-.31 1.169-.462 2.049-.455v-.09c0-.635-.329-.952-.987-.952-.469 0-.882.12-1.238.357l-.215-.703c.441-.277.986-.416 1.63-.416 1.24 0 1.864.664 1.864 1.993v1.774c0 .482.023.865.068 1.15zm-1.096-1.655v-.743c-1.165-.021-1.748.303-1.748.97 0 .252.067.44.203.566.136.125.31.188.516.188.232 0 .448-.075.646-.223a.913.913 0 00.383-.758zm7.097 1.655h-.937l-.05-.773h-.029c-.299.588-.809.883-1.525.883-.573 0-1.05-.228-1.427-.684-.378-.456-.567-1.048-.567-1.774 0-.78.205-1.412.616-1.894.398-.45.886-.675 1.466-.675.638 0 1.085.218 1.339.654h.02V6.701h1.057v5.731c0 .47.012.902.037 1.298zm-1.094-2.032v-.803c0-.139-.01-.252-.03-.337a1.223 1.223 0 00-.381-.65 1.03 1.03 0 00-.707-.262c-.394 0-.702.158-.929.476-.225.318-.338.724-.338 1.22 0 .476.107.862.324 1.16.229.317.537.475.923.475.347 0 .624-.132.834-.396.204-.245.304-.54.304-.883zm10.126-.417c0 .741-.208 1.349-.626 1.825-.437.49-1.015.734-1.74.734-.696 0-1.251-.234-1.667-.704-.413-.47-.62-1.061-.62-1.775 0-.746.213-1.358.64-1.834.428-.475 1.002-.713 1.727-.713.696 0 1.257.234 1.68.703.404.456.606 1.045.606 1.764zm-1.094.035c0-.445-.095-.826-.283-1.144-.223-.384-.537-.576-.948-.576-.424 0-.746.192-.969.576-.19.318-.283.706-.283 1.164 0 .444.095.825.283 1.143.229.385.547.577.958.577.403 0 .721-.195.949-.587.194-.324.293-.708.293-1.153zm6.773 2.414h-1.055v-2.76c0-.85-.319-1.275-.959-1.275a.942.942 0 00-.761.35c-.196.234-.294.51-.294.826v2.858h-1.057v-3.44c0-.424-.012-.883-.037-1.38h.927l.049.754h.03a1.56 1.56 0 01.547-.582c.287-.18.606-.27.958-.27.443 0 .811.145 1.105.436.365.357.547.89.547 1.597v2.886zm7.107-4.016h-1.163v2.341c0 .595.207.892.616.892.19 0 .347-.016.471-.05l.027.813c-.209.08-.483.12-.82.12-.418 0-.742-.13-.977-.387-.236-.258-.353-.691-.353-1.3V9.715h-.694v-.802h.694V8.03l1.035-.317V8.91h1.163v.803h.001zm5.591 4.016h-1.057v-2.739c0-.864-.319-1.296-.956-1.296-.49 0-.825.25-1.008.751a1.37 1.37 0 00-.05.386v2.897h-1.055V6.701h1.055v2.904h.021c.332-.528.809-.792 1.427-.792.437 0 .799.145 1.086.436.358.363.537.903.537 1.616v2.865zm5.767-2.637c0 .192-.014.354-.039.486h-3.167c.014.476.165.839.458 1.09.268.225.614.338 1.037.338a3.46 3.46 0 001.281-.228l.165.744c-.45.198-.98.297-1.594.297-.736 0-1.315-.22-1.734-.659-.422-.44-.63-1.03-.63-1.77 0-.726.194-1.331.586-1.814.409-.515.963-.772 1.661-.772.683 0 1.202.257 1.553.772.283.41.423.915.423 1.516zm-1.008-.277a1.451 1.451 0 00-.204-.823c-.184-.297-.463-.446-.841-.446-.344 0-.625.145-.84.436a1.635 1.635 0 00-.313.833h2.198z" fill="#fff"/></svg>