<svg width="136" height="41" fill="none" xmlns="http://www.w3.org/2000/svg"><mask id="mask0_0_120" style="mask-type:alpha" maskUnits="userSpaceOnUse" x="0" y="0" width="135" height="41"><path fill-rule="evenodd" clip-rule="evenodd" d="M.834 40.304h134.121V.284H.835v40.02z" fill="#fff"/></mask><g mask="url(#mask0_0_120)"><path fill-rule="evenodd" clip-rule="evenodd" d="M129.988 40.304H5.801c-2.73 0-4.967-2.252-4.967-5.002V5.288C.834 2.537 3.071.285 5.801.285h124.187c2.73 0 4.967 2.252 4.967 5.003v30.014c0 2.75-2.237 5.002-4.967 5.002z" fill="#000"/></g><mask id="mask1_0_120" style="mask-type:alpha" maskUnits="userSpaceOnUse" x="0" y="0" width="135" height="41"><path fill-rule="evenodd" clip-rule="evenodd" d="M134.955 40.304V.284H.835v40.02h134.12z" fill="#fff"/></mask><g mask="url(#mask1_0_120)"><path fill-rule="evenodd" clip-rule="evenodd" d="M129.988.285H5.801C3.071.285.834 2.537.834 5.288v30.014c0 2.75 2.237 5.002 4.967 5.002h124.187c2.73 0 4.967-2.252 4.967-5.002V5.288c0-2.751-2.237-5.003-4.967-5.003zm0 .801c2.3 0 4.17 1.885 4.17 4.202v30.014c0 2.316-1.87 4.2-4.17 4.2H5.801c-2.3 0-4.17-1.884-4.17-4.2V5.288c0-2.317 1.87-4.202 4.17-4.202h124.187z" fill="#A6A6A6"/></g><path fill-rule="evenodd" clip-rule="evenodd" d="M47.943 10.534c0 .836-.249 1.504-.737 2.003-.564.592-1.297.89-2.194.89a3.003 3.003 0 01-2.192-.9c-.602-.605-.903-1.348-.903-2.236 0-.89.301-1.632.903-2.233a2.988 2.988 0 012.192-.904c.427 0 .834.088 1.224.254.387.166.702.39.93.669l-.518.527c-.399-.474-.942-.708-1.636-.708a2.27 2.27 0 00-1.63.665c-.456.445-.684 1.022-.684 1.73 0 .707.228 1.289.684 1.733.461.44 1.004.665 1.63.665.664 0 1.224-.225 1.664-.67.29-.293.456-.699.5-1.216h-2.164v-.722h2.886c.034.156.045.306.045.453z" fill="#fff"/><path clip-rule="evenodd" d="M47.943 10.534c0 .836-.249 1.504-.737 2.003-.564.592-1.297.89-2.194.89a3.003 3.003 0 01-2.192-.9c-.602-.605-.903-1.348-.903-2.236 0-.89.301-1.632.903-2.233a2.988 2.988 0 012.192-.904c.427 0 .834.088 1.224.254.387.166.702.39.93.669l-.518.527c-.399-.474-.942-.708-1.636-.708a2.27 2.27 0 00-1.63.665c-.456.445-.684 1.022-.684 1.73 0 .707.228 1.289.684 1.733.461.44 1.004.665 1.63.665.664 0 1.224-.225 1.664-.67.29-.293.456-.699.5-1.216h-2.164v-.722h2.886c.034.156.045.306.045.453z" stroke="#fff" stroke-width=".664"/><path fill-rule="evenodd" clip-rule="evenodd" d="M52.521 8.027h-2.71V9.93h2.444v.723H49.81v1.9h2.711v.738h-3.477V7.292h3.477v.735z" fill="#fff"/><path clip-rule="evenodd" d="M52.521 8.027h-2.71V9.93h2.444v.723H49.81v1.9h2.711v.738h-3.477V7.292h3.477v.735z" stroke="#fff" stroke-width=".664"/><path fill-rule="evenodd" clip-rule="evenodd" d="M55.753 13.29h-.768V8.027h-1.662v-.735h4.094v.735h-1.664v5.263z" fill="#fff"/><path clip-rule="evenodd" d="M55.753 13.29h-.768V8.027h-1.662v-.735h4.094v.735h-1.664v5.263z" stroke="#fff" stroke-width=".664"/><mask id="mask2_0_120" style="mask-type:alpha" maskUnits="userSpaceOnUse" x="0" y="0" width="135" height="41"><path fill-rule="evenodd" clip-rule="evenodd" d="M.834 40.304h134.121V.284H.835v40.02z" fill="#fff"/></mask><g mask="url(#mask2_0_120)"><path fill-rule="evenodd" clip-rule="evenodd" d="M60.38 13.29h.932V7.292h-.932v5.998z" fill="#fff"/><path clip-rule="evenodd" d="M60.38 13.29h.932V7.292h-.932v5.998z" stroke="#fff" stroke-width=".664"/><path fill-rule="evenodd" clip-rule="evenodd" d="M64.542 13.29h-.76V8.027h-1.67v-.735h4.1v.735h-1.67v5.263z" fill="#fff"/><path clip-rule="evenodd" d="M64.542 13.29h-.76V8.027h-1.67v-.735h4.1v.735h-1.67v5.263z" stroke="#fff" stroke-width=".664"/><path fill-rule="evenodd" clip-rule="evenodd" d="M70.16 12.014c.442.45.98.675 1.62.675.636 0 1.18-.225 1.615-.675.442-.448.666-1.025.666-1.723 0-.7-.224-1.276-.666-1.725a2.172 2.172 0 00-1.615-.675c-.64 0-1.178.226-1.62.675-.442.449-.665 1.026-.665 1.725 0 .698.223 1.275.665 1.723zm3.803.504c-.587.606-1.315.909-2.183.909-.873 0-1.6-.303-2.188-.91-.586-.605-.878-1.348-.878-2.226 0-.88.292-1.623.878-2.228.587-.606 1.315-.91 2.188-.91.864 0 1.591.304 2.179.915.59.61.882 1.348.882 2.223 0 .878-.292 1.621-.877 2.226z" fill="#fff"/><path d="M70.16 12.014l.237-.232-.237.232zm3.235 0l-.236-.232-.002.001.238.232zm0-3.448l-.238.231.002.002.236-.233zm-3.235 0l-.237-.233.237.233zm3.803 3.951l.239.232-.239-.232zm-4.371 0l-.239.231.239-.23zm0-4.454l-.239-.231.239.23zm4.367.005l-.24.23h.001l.239-.23zm-4.036 4.18a2.513 2.513 0 001.857.773v-.664a1.85 1.85 0 01-1.383-.575l-.474.465zm1.857.773a2.5 2.5 0 001.854-.775l-.477-.463a1.837 1.837 0 01-1.377.574v.664zm1.852-.774c.509-.517.76-1.18.76-1.956h-.664c0 .62-.196 1.11-.57 1.49l.474.466zm.76-1.956c0-.777-.251-1.44-.76-1.958l-.473.466c.373.38.57.87.57 1.492h.663zm-.758-1.957a2.504 2.504 0 00-1.854-.775v.664a1.84 1.84 0 011.377.574l.477-.463zM71.78 7.56c-.73 0-1.352.261-1.857.774l.473.466c.38-.385.832-.576 1.384-.576V7.56zm-1.857.774c-.509.517-.76 1.181-.76 1.958h.664c0-.622.196-1.112.57-1.492l-.474-.466zm-.76 1.958c0 .775.251 1.439.76 1.956l.474-.465c-.374-.38-.57-.87-.57-1.491h-.664zm4.562 1.995c-.523.54-1.164.809-1.945.809v.664c.955 0 1.77-.337 2.422-1.01l-.477-.463zm-1.945.809c-.786 0-1.427-.269-1.95-.809l-.477.463c.652.673 1.467 1.01 2.427 1.01v-.664zm-1.95-.808c-.522-.54-.784-1.2-.784-1.996h-.664c0 .96.323 1.787.971 2.457l.478-.461zm-.784-1.996c0-.798.262-1.457.784-1.997l-.477-.462c-.648.67-.971 1.497-.971 2.459h.664zm.784-1.997c.523-.54 1.164-.808 1.95-.808v-.664c-.96 0-1.775.337-2.427 1.01l.477.462zm1.95-.808c.776 0 1.416.268 1.94.812l.478-.46c-.652-.679-1.467-1.016-2.418-1.016v.664zm1.94.813c.528.546.79 1.2.79 1.992h.664c0-.958-.324-1.78-.977-2.454l-.477.462zm.79 1.992c0 .797-.262 1.455-.785 1.996l.477.461c.649-.67.972-1.497.972-2.457h-.665z" fill="#fff"/><path fill-rule="evenodd" clip-rule="evenodd" d="M75.918 13.29V7.292h.932l2.896 4.664h.033l-.033-1.153V7.29h.765v5.998h-.8L76.68 8.395h-.034l.034 1.158v3.738h-.762z" fill="#fff"/><path clip-rule="evenodd" d="M75.918 13.29V7.292h.932l2.896 4.664h.033l-.033-1.153V7.29h.765v5.998h-.8L76.68 8.395h-.034l.034 1.158v3.738h-.762z" stroke="#fff" stroke-width=".664"/><path fill-rule="evenodd" clip-rule="evenodd" d="M107.071 30.3h1.858V17.793h-1.858V30.3zm16.702-8.002l-2.129 5.422h-.064l-2.202-5.422h-1.998l3.308 7.577-1.887 4.215h1.936l5.097-11.792h-2.061zm-10.517 6.58c-.606 0-1.451-.303-1.451-1.06 0-.968 1.053-1.339 1.965-1.339.816 0 1.198.18 1.694.42-.146 1.158-1.136 1.979-2.208 1.979zm.223-6.854c-1.338 0-2.731.595-3.303 1.915l1.645.694c.353-.694 1.004-.919 1.691-.919.963 0 1.937.58 1.952 1.608v.132c-.335-.195-1.053-.485-1.936-.485-1.771 0-3.576.982-3.576 2.814 0 1.676 1.451 2.755 3.081 2.755 1.247 0 1.935-.567 2.368-1.225h.063v.966h1.789v-4.797c0-2.218-1.644-3.458-3.774-3.458zm-11.453 1.798h-2.639v-4.29h2.639c1.383 0 2.172 1.158 2.172 2.145 0 .967-.789 2.145-2.172 2.145zm-.049-6.029h-4.444V30.3h1.854v-4.74h2.59c2.058 0 4.076-1.499 4.076-3.883s-2.023-3.884-4.076-3.884zm-24.221 11.09c-1.28 0-2.352-1.08-2.352-2.565 0-1.5 1.071-2.594 2.352-2.594 1.262 0 2.257 1.094 2.257 2.594 0 1.486-.995 2.564-2.257 2.564zm2.125-5.887h-.063c-.417-.498-1.212-.948-2.22-.948-2.117 0-4.051 1.871-4.051 4.27 0 2.384 1.934 4.24 4.05 4.24 1.009 0 1.804-.453 2.221-.966h.063v.61c0 1.627-.863 2.501-2.255 2.501-1.135 0-1.84-.825-2.13-1.52l-1.616.68c.466 1.128 1.699 2.515 3.746 2.515 2.178 0 4.016-1.29 4.016-4.43v-7.641h-1.76v.69zm3.042 7.304h1.859V17.793h-1.859V30.3zm4.594-4.128c-.049-1.642 1.266-2.482 2.207-2.482.737 0 1.364.371 1.572.903l-3.78 1.579zm5.763-1.418c-.35-.951-1.426-2.706-3.62-2.706-2.173 0-3.982 1.724-3.982 4.256 0 2.383 1.79 4.254 4.19 4.254 1.943 0 3.062-1.191 3.523-1.885l-1.44-.967c-.481.707-1.136 1.177-2.082 1.177-.94 0-1.615-.434-2.046-1.29l5.651-2.354-.195-.485zm-45.013-1.402v1.809h4.288c-.126 1.01-.461 1.753-.975 2.27-.626.626-1.6 1.32-3.313 1.32-2.64 0-4.706-2.145-4.706-4.802 0-2.658 2.067-4.803 4.706-4.803 1.427 0 2.465.562 3.231 1.29l1.266-1.274c-1.073-1.03-2.498-1.823-4.497-1.823-3.619 0-6.66 2.966-6.66 6.61s3.041 6.61 6.66 6.61c1.955 0 3.424-.646 4.58-1.857 1.183-1.191 1.552-2.868 1.552-4.22 0-.42-.035-.807-.097-1.13h-6.035zm11.008 5.53c-1.281 0-2.387-1.064-2.387-2.578 0-1.535 1.106-2.58 2.387-2.58 1.28 0 2.382 1.045 2.382 2.58 0 1.514-1.101 2.579-2.382 2.579zm0-6.834c-2.338 0-4.24 1.788-4.24 4.256 0 2.448 1.902 4.254 4.24 4.254 2.337 0 4.24-1.806 4.24-4.254 0-2.468-1.904-4.256-4.24-4.256zm9.25 6.835c-1.28 0-2.382-1.065-2.382-2.58 0-1.534 1.102-2.58 2.382-2.58s2.387 1.046 2.387 2.58c0 1.515-1.107 2.58-2.387 2.58zm0-6.835c-2.334 0-4.24 1.788-4.24 4.256 0 2.448 1.906 4.254 4.24 4.254 2.338 0 4.245-1.806 4.245-4.254 0-2.468-1.907-4.256-4.245-4.256z" fill="#fff"/></g><path fill-rule="evenodd" clip-rule="evenodd" d="M31.645 17.412c2.026 1.13 2.026 4.045 0 5.174l-17.698 9.858c-1.973 1.1-4.402-.328-4.402-2.587V10.141c0-2.26 2.428-3.686 4.402-2.587l17.698 9.858z" fill="url(#paint0_linear_0_120)"/><mask id="mask3_0_120" style="mask-type:alpha" maskUnits="userSpaceOnUse" x="9" y="7" width="25" height="26"><path fill-rule="evenodd" clip-rule="evenodd" d="M31.645 17.412c2.026 1.13 2.026 4.045 0 5.174l-17.698 9.858c-1.973 1.1-4.402-.328-4.402-2.587V10.141c0-2.26 2.428-3.686 4.402-2.587l17.698 9.858z" fill="#fff"/></mask><g mask="url(#mask3_0_120)" fill-rule="evenodd" clip-rule="evenodd"><path d="M9.78 5.987l13.584 13.787-13.76 14.332.175-28.12z" fill="url(#paint1_linear_0_120)"/><path d="M6.986 3.148l16.377 16.63 4.869-4.743L6.986 3.148z" fill="url(#paint2_linear_0_120)"/><path d="M23.365 19.774l7.454 7.672L8.55 35.118l14.814-15.344z" fill="url(#paint3_linear_0_120)"/></g><defs><linearGradient id="paint0_linear_0_120" x1="34.693" y1="14.08" x2="25.497" y2="14.08" gradientUnits="userSpaceOnUse"><stop stop-color="#FBDA09"/><stop offset="1" stop-color="#FFBC00"/></linearGradient><linearGradient id="paint1_linear_0_120" x1="10.938" y1="32.173" x2="21.032" y2="30.791" gradientUnits="userSpaceOnUse"><stop stop-color="#01E2FF"/><stop offset="1" stop-color="#01C4FF"/></linearGradient><linearGradient id="paint2_linear_0_120" x1="4.547" y1="11.774" x2="14.804" y2="24.875" gradientUnits="userSpaceOnUse"><stop stop-color="#28D781"/><stop offset="1" stop-color="#02F076"/></linearGradient><linearGradient id="paint3_linear_0_120" x1="16.926" y1="17.51" x2="8.119" y2="32.152" gradientUnits="userSpaceOnUse"><stop stop-color="#F2414E"/><stop offset="1" stop-color="#E02554"/></linearGradient></defs></svg>