<svg width="87" height="36" fill="none" xmlns="http://www.w3.org/2000/svg"><rect width="87" height="36" rx="2" fill="#F5A623"/><g clip-path="url(#clip0_0_319)" fill="#fff"><path d="M69.5 18.5l-.271-.315-4.056-4.685-.673.63 3.785 4.37-3.785 4.37.672.63 4.057-4.685.271-.315z" stroke="#fff"/><path d="M26.478 13.032V23h-1.344l-5.376-6.986V23h-1.68v-9.968h1.344l5.362 6.972v-6.972h1.694zm2.668 0h6.664v1.428h-4.9v2.758h4.606v1.428H30.91v2.926h4.9V23h-6.664v-9.968zM46.305 23H44.19l-2.702-3.724L38.787 23h-2.114l3.794-5.082-3.668-4.886h2.114l2.576 3.57 2.604-3.57h2.1l-3.682 4.9L46.305 23zm3.802-8.484H46.86v-1.484h8.33v1.484h-3.262V23h-1.82v-8.484z"/></g><defs><clipPath id="clip0_0_319"><path fill="#fff" transform="translate(17 9)" d="M0 0h53v18H0z"/></clipPath></defs></svg>