<svg width="87" height="36" fill="none" xmlns="http://www.w3.org/2000/svg"><rect width="87" height="36" rx="2" fill="#F5A623"/><g clip-path="url(#clip0_0_324)" fill="#fff"><path d="M17.5 18.5l.271-.315 4.056-4.685.673.63-3.785 4.37 3.785 4.37-.672.63-4.057-4.685-.271-.315z" stroke="#fff"/><path d="M31.078 13.032h4.326c1.073 0 1.909.261 2.506.784.597.513.896 1.218.896 2.114 0 .896-.303 1.605-.91 2.128-.597.523-1.428.784-2.492.784h-2.52V23h-1.806v-9.968zm4.116 4.41c.625 0 1.097-.126 1.414-.378.327-.261.49-.635.49-1.12 0-.495-.159-.868-.476-1.12-.317-.261-.793-.392-1.428-.392h-2.31v3.01h2.31zM49.106 23h-1.904l-1.274-3.318c-.112-.308-.284-.523-.518-.644-.233-.121-.536-.182-.91-.182h-1.806V23h-1.792v-9.968h4.27c1.13 0 1.988.247 2.576.742.588.495.882 1.204.882 2.128 0 .663-.177 1.227-.532 1.694-.345.457-.84.784-1.484.98.588.121 1.013.532 1.274 1.232L49.106 23zm-4.186-5.544c.682 0 1.186-.126 1.512-.378.327-.252.49-.635.49-1.148 0-.504-.163-.877-.49-1.12-.317-.252-.821-.378-1.512-.378h-2.254v3.024h2.254zm6.312-4.424h6.664v1.428h-4.9v2.758h4.606v1.428h-4.606v2.926h4.9V23h-6.664v-9.968zm17.969 0L64.763 23h-1.47l-4.438-9.968h1.876l3.318 7.7 3.317-7.7h1.835z"/></g><defs><clipPath id="clip0_0_324"><path fill="#fff" transform="matrix(-1 0 0 1 70 9)" d="M0 0h53v18H0z"/></clipPath></defs></svg>