<svg width="12" height="13" fill="none" xmlns="http://www.w3.org/2000/svg"><path fill-rule="evenodd" clip-rule="evenodd" d="M2.913 12.2H12V.2H7.236C4.596.2 2.2 1.795 1.123 4.257L0 6.858 2.913 12.2zm8.404-.697h-8.01L.76 6.827l.986-2.276C2.715 2.337 4.87.912 7.236.912h4.081v10.591z" fill="#F5A623"/><path fill-rule="evenodd" clip-rule="evenodd" d="M7.4 1.463h3.337v5.053H1.895l.853-2.053c.807-1.973 2.633-3 4.653-3zm2.664 4.347V2.185H7.4c-1.856 0-3.367.962-4.04 2.582L2.927 5.81h7.137z" fill="#F5A623"/><path d="M10.364 8.41h-1.15c-.194 0-.372-.137-.372-.315 0-.179.162-.316.373-.316h1.15c.194 0 .372.137.372.316 0 .178-.162.315-.373.315z" fill="#F5A623"/></svg>