<svg width="19" height="14" fill="none" xmlns="http://www.w3.org/2000/svg"><path fill-rule="evenodd" clip-rule="evenodd" d="M2.242.028h13.856a2.242 2.242 0 012.239 2.246v9.466a2.244 2.244 0 01-2.243 2.243H2.242A2.244 2.244 0 010 11.74V2.27A2.244 2.244 0 012.242.028zm13.856 12.93a1.22 1.22 0 001.218-1.217h-.004V2.274a1.22 1.22 0 00-1.218-1.218H2.242a1.22 1.22 0 00-1.218 1.218v9.466a1.22 1.22 0 001.218 1.218h13.856z" fill="#000"/><path d="M11.564 6.888l4.485-4.022a.515.515 0 00.038-.724.515.515 0 00-.725-.038l-6.184 5.55L7.97 6.578c-.004-.004-.007-.008-.007-.011a.758.758 0 00-.084-.072L2.97 2.1a.512.512 0 00-.724.042.512.512 0 00.042.724l4.537 4.056-4.518 4.23a.514.514 0 00.702.752l4.587-4.291L8.84 8.724a.512.512 0 00.683-.003l1.279-1.146 4.56 4.333a.512.512 0 10.706-.744l-4.504-4.276z" fill="#000"/></svg>