<svg width="13" height="18" fill="none" xmlns="http://www.w3.org/2000/svg"><path fill-rule="evenodd" clip-rule="evenodd" d="M4 6.5C4 5.122 5.122 4 6.5 4S9 5.122 9 6.5 7.878 9 6.5 9A2.503 2.503 0 014 6.5zm.714 0c0 .985.801 1.786 1.786 1.786S8.286 7.485 8.286 6.5 7.485 4.714 6.5 4.714 4.714 5.515 4.714 6.5z" fill="#000"/><path fill-rule="evenodd" clip-rule="evenodd" d="M6.5 0c1.737 0 3.37.656 4.597 1.846 2.272 2.204 2.555 6.349.604 8.87L6.5 18l-5.208-7.294c-1.942-2.511-1.66-6.656.612-8.86A6.56 6.56 0 016.501 0zm0 16.845l4.651-6.513c1.77-2.289 1.518-6.032-.533-8.02A5.878 5.878 0 006.5.656 5.877 5.877 0 002.383 2.31C.333 4.3.08 8.043 1.843 10.322L6.5 16.845z" fill="#000"/></svg>