<svg width="20" height="21" fill="none" xmlns="http://www.w3.org/2000/svg"><path fill-rule="evenodd" clip-rule="evenodd" d="M10.098 2.227c2.53 0 2.83.01 3.83.058.924.044 1.426.205 1.76.34.442.18.758.393 1.09.738.331.346.537.675.709 1.135.13.348.284.87.326 1.833.046 1.041.055 1.354.055 3.99 0 2.635-.01 2.948-.055 3.989-.042.962-.197 1.485-.326 1.833-.172.46-.378.79-.71 1.135a2.93 2.93 0 01-1.09.738c-.333.136-.835.296-1.759.34-1 .048-1.299.058-3.83.058s-2.83-.01-3.83-.058c-.924-.044-1.426-.204-1.76-.34a2.931 2.931 0 01-1.09-.738 3.078 3.078 0 01-.709-1.135c-.13-.348-.284-.87-.326-1.833-.046-1.041-.055-1.354-.055-3.99 0-2.635.009-2.948.055-3.989.042-.962.196-1.485.326-1.833.172-.46.378-.79.709-1.135a2.938 2.938 0 011.09-.738c.334-.135.836-.296 1.76-.34 1-.048 1.3-.058 3.83-.058zm0-1.778c-2.574 0-2.897.01-3.908.059-1.009.048-1.698.215-2.3.459a4.629 4.629 0 00-1.68 1.138c-.527.55-.85 1.1-1.093 1.749C.883 4.482.723 5.2.677 6.25.63 7.303.62 7.64.62 10.32c0 2.682.01 3.018.057 4.07.046 1.051.206 1.769.44 2.397.242.65.566 1.2 1.093 1.748.527.55 1.056.887 1.68 1.14.602.243 1.291.41 2.3.458 1.011.048 1.334.06 3.908.06s2.897-.012 3.908-.06c1.009-.048 1.697-.215 2.3-.459a4.624 4.624 0 001.68-1.139 4.857 4.857 0 001.093-1.748c.234-.628.394-1.346.44-2.396.046-1.053.057-1.39.057-4.07 0-2.682-.01-3.018-.057-4.07-.046-1.051-.206-1.769-.44-2.397a4.862 4.862 0 00-1.094-1.749A4.628 4.628 0 0016.307.967c-.603-.244-1.292-.411-2.301-.459-1.011-.048-1.334-.06-3.908-.06zm.019 4.818c-2.69 0-4.871 2.271-4.871 5.073 0 2.802 2.18 5.073 4.87 5.073s4.871-2.271 4.871-5.073c0-2.802-2.18-5.073-4.87-5.073zm0 8.366c-1.746 0-3.162-1.474-3.162-3.293 0-1.818 1.416-3.293 3.162-3.293s3.161 1.475 3.161 3.293c0 1.819-1.415 3.293-3.161 3.293zm6.15-8.601c0 .65-.506 1.175-1.13 1.175-.622 0-1.128-.526-1.128-1.175s.506-1.175 1.129-1.175 1.128.526 1.128 1.175z" fill="#fff"/></svg>