<svg width="20" height="13" fill="none" xmlns="http://www.w3.org/2000/svg"><path d="M10.473 8.718a.254.254 0 01-.224-.134.245.245 0 01.11-.333c.68-.34 1.01-1.167 1.01-2.532 0-.136.115-.248.253-.248.233 0 .505-.064.505-.247v-.99c0-.248 0-.248-.252-.248a.25.25 0 01-.253-.247v-.99c0-.637-.158-1.087-.471-1.339-.338-.273-.887-.338-1.632-.196a.25.25 0 01-.296-.196.248.248 0 01.2-.29c.9-.174 1.589-.073 2.048.299.435.35.655.928.655 1.72v.764c.506.097.506.494.506.721v.99c0 .322-.239.647-.761.725-.04 1.435-.46 2.334-1.283 2.744a.259.259 0 01-.114.027zm4.043 0a.254.254 0 01-.225-.134.245.245 0 01.111-.333c.68-.34 1.01-1.17 1.01-2.54a.25.25 0 01.255-.248c.202.003.368-.04.448-.117a.16.16 0 00.053-.123v-.99c0-.247 0-.247-.253-.247a.25.25 0 01-.252-.248v-.99c0-.636-.159-1.087-.47-1.338-.338-.273-.887-.338-1.632-.195a.25.25 0 01-.297-.196.248.248 0 01.2-.29c.9-.175 1.59-.073 2.05.298.434.35.654.928.654 1.72v.764c.506.097.506.494.506.721v.99c0 .18-.073.349-.203.475-.101.097-.274.207-.558.245-.04 1.439-.461 2.339-1.283 2.749a.26.26 0 01-.114.027z" fill="#F5A623"/><path fill-rule="evenodd" clip-rule="evenodd" d="M2.788 5.948c.117 1.43 1.285 2.987 2.77 2.987 1.484 0 2.653-1.557 2.77-2.986.527-.076.767-.404.767-.726v-.99c0-.31-.306-.533-.506-.646v-.753c.36-.462.438-.964.22-1.422C8.513.797 7.744.4 6.85.4a3.26 3.26 0 00-1.88.615c-2.145.021-2.444.844-2.444 1.732v.84c-.2.113-.505.336-.505.645v.99c0 .324.24.65.767.726zm2.416-4.487C5.84.993 6.451.895 6.851.895c.688 0 1.292.292 1.5.728.144.302.072.637-.209.966a.245.245 0 00-.058.159v.99c0 .097.058.186.15.226.16.071.344.21.355.27v.99c0 .182-.272.247-.505.247a.25.25 0 00-.253.247c0 1.233-1.014 2.723-2.274 2.723S3.284 6.95 3.284 5.718a.25.25 0 00-.253-.247c-.233 0-.505-.065-.505-.248v-.988c.01-.054.177-.191.356-.27a.25.25 0 00.15-.226v-.99c0-.552 0-1.238 2.02-1.238a.26.26 0 00.152-.05z" fill="#F5A623"/><path d="M2.788 5.948l.25-.02-.016-.199-.198-.028-.036.247zm5.54 0l-.036-.247-.198.029-.016.199.25.02zm.261-2.361h-.25v.146l.127.071.123-.217zm0-.753l-.197-.154-.053.068v.086h.25zm.22-1.422l.225-.108-.226.108zm-3.84-.397l.003.25h.077l.064-.045-.144-.205zM2.526 3.587l.123.217.127-.071v-.146h-.25zM5.204 1.46l.147.203.001-.001-.148-.202zm3.146.162l-.225.108.225-.108zm-.208.966l-.19-.162-.001.001.191.161zm.091 1.375l.101-.229-.1.229zm.356.27h.25V4.21l-.004-.022-.246.044zm-6.063 0L2.28 4.19l-.004.022v.024h.25zm.356-.27l.101.23h.002l-.103-.23zm2.676 4.72c-.65 0-1.25-.34-1.709-.87a3.386 3.386 0 01-.811-1.886l-.499.04c.063.771.407 1.568.932 2.174.526.606 1.253 1.043 2.087 1.043v-.5zm2.52-2.755a3.397 3.397 0 01-.811 1.885c-.46.53-1.059.87-1.71.87v.5c.835 0 1.562-.436 2.087-1.042.526-.606.87-1.402.932-2.173l-.498-.04zm.767-.706c0 .177-.127.417-.553.478l.07.495c.63-.09.983-.505.983-.973h-.5zm0-.99v.99h.5v-.99h-.5zm-.379-.429c.09.05.191.12.268.203.077.082.11.158.11.226h.5a.835.835 0 00-.244-.568 1.643 1.643 0 00-.387-.296l-.247.435zm-.127-.97v.753h.5v-.753h-.5zm.244-1.314c.17.357.122.759-.19 1.16l.394.307c.406-.522.514-1.124.247-1.683l-.451.216zM6.85.65c.835 0 1.493.37 1.733.87l.45-.216C8.685.574 7.807.15 6.85.15v.5zm-1.737.57A3.01 3.01 0 016.85.65v-.5a3.51 3.51 0 00-2.024.66l.287.41zM2.776 2.747c0-.422.073-.76.338-1.008.274-.255.807-.463 1.858-.474l-.005-.5c-1.094.011-1.782.225-2.194.608-.42.392-.497.908-.497 1.374h.5zm0 .84v-.84h-.5v.84h.5zm-.505.645c0-.068.033-.143.11-.225a1.15 1.15 0 01.268-.203l-.246-.435c-.11.063-.261.162-.387.296a.834.834 0 00-.245.567h.5zm0 .99v-.99h-.5v.99h.5zm.553.479c-.427-.062-.553-.3-.553-.479h-.5c0 .47.354.883.982.974l.071-.495zM6.851.645c-.442 0-1.108.109-1.795.615l.296.403c.585-.431 1.14-.518 1.499-.518v-.5zm1.725.871C8.31.956 7.588.645 6.851.645v.5c.64 0 1.125.273 1.274.586l.451-.215zm-.244 1.236c.323-.379.444-.818.244-1.237l-.451.216c.089.185.066.415-.173.696l.38.325zm.002-.004v.003c-.001 0-.001 0 0 0l-.383-.323a.495.495 0 00-.117.32h.5zm0 .99v-.99h-.5v.99h.5zm0-.003c-.003-.001 0-.001 0 .003h-.5c0 .2.12.376.299.455l.2-.458zm.5.454a.32.32 0 00-.049-.12.49.49 0 00-.052-.064.95.95 0 00-.114-.1 1.489 1.489 0 00-.285-.17l-.202.458a.991.991 0 01.238.155c.004.005.003.004-.001-.002-.002-.003-.019-.027-.026-.068l.492-.09zm.005 1.034v-.99h-.5v.99h.5zm-.755.498c.133 0 .295-.018.433-.073.13-.053.322-.178.322-.425h-.5c0-.023.01-.043.02-.053.004-.005 0 .003-.028.014a.718.718 0 01-.247.037v.5zm-.003-.003v.004l.003-.001v-.5a.5.5 0 00-.503.497h.5zM5.557 8.691c.733 0 1.367-.431 1.807-.995.44-.565.717-1.299.717-1.978h-.5c0 .554-.23 1.182-.612 1.67-.381.49-.884.803-1.412.803v.5zM3.034 5.718c0 .68.276 1.413.717 1.978.44.564 1.074.995 1.806.995v-.5c-.527 0-1.03-.314-1.412-.803-.38-.488-.611-1.115-.611-1.67h-.5zm-.003.003l.004.001-.001-.004h.5a.5.5 0 00-.503-.497v.5zm-.755-.498c0 .247.191.372.322.425.138.055.3.073.433.073v-.5a.716.716 0 01-.247-.037c-.027-.011-.032-.019-.028-.014.009.01.02.03.02.053h-.5zm0-.988v.988h.5v-.988h-.5zm.506-.499c-.11.049-.215.114-.295.176a.913.913 0 00-.11.1.483.483 0 00-.05.063.317.317 0 00-.047.114l.491.092a.179.179 0 01-.025.067c-.004.006-.005.007-.001.002a.936.936 0 01.238-.156l-.201-.458zm0 .003c0-.005.002-.004-.002-.002l.205.456a.5.5 0 00.297-.454h-.5zm0-.99v.99h.5v-.99h-.5zm2.27-1.488c-1.02 0-1.613.17-1.94.481-.34.324-.33.744-.33 1.007h.5c0-.29.01-.488.175-.645.178-.17.596-.343 1.596-.343v-.5zm.005-.002c-.003.003-.005.002-.004.002v.5a.51.51 0 00.298-.097l-.294-.405z" fill="#F5A623"/><path d="M.253 12.4A.25.25 0 010 12.152v-.494c0-1.434 1.169-2.476 2.779-2.476h.623l.724-1.058a.257.257 0 01.35-.069c.116.075.148.23.07.343l-.8 1.169a.255.255 0 01-.21.11h-.758c-1.338 0-2.273.814-2.273 1.98v.495a.25.25 0 01-.252.248zm10.61 0a.25.25 0 01-.252-.248v-.495c0-1.166-.919-1.98-2.233-1.98H7.62a.253.253 0 01-.208-.107l-.82-1.168a.244.244 0 01.065-.344.256.256 0 01.351.064l.745 1.061h.625c1.612 0 2.738 1.019 2.738 2.475v.495a.25.25 0 01-.253.247v0z" fill="#F5A623" stroke="#F5A623" stroke-width=".5"/><path d="M14.905 12.4a.25.25 0 01-.252-.248v-.495c0-1.166-.918-1.98-2.233-1.98h-.758a.254.254 0 01-.208-.107l-.82-1.168a.244.244 0 01.065-.344.256.256 0 01.352.064l.745 1.061h.624c1.612 0 2.738 1.019 2.738 2.475v.495a.25.25 0 01-.253.247zm4.042 0a.25.25 0 01-.252-.248v-.495c0-1.166-.918-1.98-2.233-1.98h-.757a.254.254 0 01-.209-.107l-.82-1.168a.244.244 0 01.066-.344.256.256 0 01.35.064l.746 1.061h.624c1.612 0 2.738 1.019 2.738 2.475v.495a.25.25 0 01-.253.247z" fill="#F5A623"/></svg>