<svg width="19" height="17" fill="none" xmlns="http://www.w3.org/2000/svg"><path fill-rule="evenodd" clip-rule="evenodd" d="M15.965 2.887c.767-.504 1.355-1.303 1.631-2.255a7.042 7.042 0 01-2.358.99c-.675-.794-1.64-1.289-2.71-1.289-2.05 0-3.71 1.826-3.71 4.078 0 .32.03.631.094.929-3.084-.17-5.819-1.792-7.65-4.261a4.38 4.38 0 00-.503 2.05c0 1.415.655 2.664 1.651 3.396a3.472 3.472 0 01-1.682-.51v.05c0 1.977 1.279 3.625 2.98 3.998a3.33 3.33 0 01-.98.144 3.37 3.37 0 01-.698-.072c.472 1.62 1.843 2.8 3.468 2.831-1.271 1.095-2.872 1.746-4.61 1.746-.3 0-.596-.018-.886-.056 1.643 1.156 3.594 1.831 5.69 1.831 6.83 0 10.562-6.213 10.562-11.602 0-.177-.003-.354-.01-.527a7.974 7.974 0 001.852-2.113 6.893 6.893 0 01-2.131.642z" fill="#fff"/></svg>